<?xml version="1.0" standalone="no"?>
<!DOCTYPE svg PUBLIC "-//W3C//DTD SVG 20010904//EN"
 "http://www.w3.org/TR/2001/REC-SVG-20010904/DTD/svg10.dtd">
<svg version="1.0" xmlns="http://www.w3.org/2000/svg"
 width="512.000000pt" height="512.000000pt" viewBox="0 0 512.000000 512.000000"
 preserveAspectRatio="xMidYMid meet">
<metadata>
Created by potrace 1.14, written by Peter Selinger 2001-2017
</metadata>
<g transform="translate(0.000000,512.000000) scale(0.100000,-0.100000)"
fill="#000000" stroke="none">
<path d="M853 4395 c-101 -31 -176 -97 -222 -195 l-26 -55 -2 -620 c-2 -666 0
-704 51 -880 57 -195 178 -412 303 -545 l51 -54 -50 -96 c-28 -52 -88 -165
-133 -250 -45 -85 -106 -200 -135 -255 -138 -259 -135 -250 -135 -355 0 -82 4
-103 26 -150 24 -52 99 -149 116 -152 20 -2 53 -22 53 -31 0 -6 3 -8 6 -4 3 3
18 1 33 -5 14 -5 37 -12 50 -14 14 -3 40 -19 60 -36 19 -17 60 -43 91 -57 l55
-26 560 0 560 0 55 25 c61 27 68 31 113 77 45 45 45 45 113 178 34 66 98 190
142 275 44 85 108 210 142 278 l63 122 58 0 58 0 -6 -103 c-2 -56 -6 -185 -6
-287 -2 -180 -1 -187 24 -240 33 -71 79 -124 138 -157 25 -15 68 -46 94 -71
26 -24 73 -55 105 -70 l57 -27 520 0 520 0 67 33 c77 38 130 92 167 171 l26
56 0 620 c0 605 -3 698 -25 780 -63 230 -124 349 -303 588 l-66 89 76 146 c97
188 217 419 260 500 69 133 81 261 34 367 -15 32 -22 69 -22 103 0 28 -4 52
-9 52 -5 0 -7 9 -5 20 2 11 -1 22 -6 25 -5 4 -7 10 -4 15 3 5 -1 15 -9 23 -8
8 -12 17 -9 21 4 3 1 6 -6 6 -7 0 -9 5 -6 10 3 6 1 10 -4 10 -6 0 -11 6 -11
14 0 30 -147 133 -176 122 -8 -3 -12 -2 -9 3 11 19 -92 22 -665 19 l-585 -3
-66 -32 c-37 -18 -84 -52 -106 -75 -22 -25 -88 -136 -152 -258 -63 -118 -138
-260 -167 -315 -29 -55 -72 -138 -97 -185 l-44 -85 -62 -3 -62 -3 5 63 c3 35
9 135 12 224 7 182 -2 233 -58 319 -17 28 -33 53 -34 58 -1 4 -3 10 -4 15 -1
4 -3 12 -5 17 -1 6 -3 12 -4 15 -2 3 -4 14 -6 24 -2 10 -7 22 -12 25 -4 3 -9
13 -11 21 -2 8 -8 17 -13 18 -5 2 -9 8 -9 14 0 29 -101 102 -176 128 -54 19
-86 20 -578 19 -401 0 -531 -3 -563 -14z"/>
</g>
</svg>
